ply
format ascii 1.0
comment Created by Blender 2.74 (sub 0) - www.blender.org, source file: 'luxball6_cloth.blend'
element vertex 4
property float x
property float y
property float z
property float nx
property float ny
property float nz
property float s
property float t
element face 1
property list uchar uint vertex_indices
end_header
-0.000079 -0.000048 0.000969 0.000000 0.000000 1.000000 0.000000 -3.999999
0.999921 -0.000048 0.000969 0.000000 0.000000 1.000000 3.570556 -3.999999
0.999921 0.999952 0.000969 0.000000 0.000000 1.000000 3.570556 1.000001
-0.000079 0.999952 0.000969 0.000000 0.000000 1.000000 0.000000 1.000001
4 0 1 2 3
