ply
format ascii 1.0
comment Created by Blender 2.74 (sub 0) - www.blender.org, source file: 'luxball6_cloth.blend'
element vertex 64
property float x
property float y
property float z
property float nx
property float ny
property float nz
element face 17
property list uchar uint vertex_indices
end_header
0.998595 0.999658 -0.002521 -0.000000 -1.000000 -0.000000
0.998595 0.999657 0.475718 -0.000000 -1.000000 -0.000000
0.002096 0.999658 0.475718 -0.000000 -1.000000 -0.000000
0.002096 0.999658 -0.002521 -0.000000 -1.000000 -0.000000
0.002095 -0.000841 -0.002521 0.000000 1.000000 0.000000
0.002095 -0.000841 0.475718 0.000000 1.000000 0.000000
0.998595 -0.000842 0.475718 0.000000 1.000000 0.000000
0.998595 -0.000842 -0.002521 0.000000 1.000000 0.000000
0.000096 0.997658 -0.002521 1.000000 -0.000000 0.000000
0.000096 0.997658 0.475718 1.000000 -0.000000 0.000000
0.000095 0.001159 0.475718 1.000000 -0.000000 0.000000
0.000095 0.001159 -0.002521 1.000000 -0.000000 0.000000
1.000595 0.001158 -0.002521 -1.000000 0.000000 0.000000
1.000595 0.001158 0.475718 -1.000000 0.000000 0.000000
1.000595 0.997657 0.475718 -1.000000 0.000000 0.000000
1.000595 0.997658 -0.002521 -1.000000 0.000000 0.000000
0.998595 0.999657 0.475718 -0.577356 -0.577356 -0.577339
1.000595 0.997657 0.475718 -0.577356 -0.577356 -0.577339
0.998595 0.997657 0.477718 -0.577356 -0.577356 -0.577339
0.998595 0.001158 0.477718 -0.577345 0.577362 -0.577345
1.000595 0.001158 0.475718 -0.577345 0.577362 -0.577345
0.998595 -0.000842 0.475718 -0.577345 0.577362 -0.577345
0.002095 0.001159 0.477718 0.577356 0.577356 -0.577339
0.002095 -0.000841 0.475718 0.577356 0.577356 -0.577339
0.000095 0.001159 0.475718 0.577356 0.577356 -0.577339
0.002096 0.997658 0.477718 0.577356 -0.577356 -0.577339
0.000096 0.997658 0.475718 0.577356 -0.577356 -0.577339
0.002096 0.999658 0.475718 0.577356 -0.577356 -0.577339
1.000595 0.997657 0.475718 -0.707112 0.000000 -0.707102
1.000595 0.001158 0.475718 -0.707112 0.000000 -0.707102
0.998595 0.001158 0.477718 -0.707112 0.000000 -0.707102
0.998595 0.997657 0.477718 -0.707112 0.000000 -0.707102
0.998595 -0.000842 0.475718 0.000000 0.707117 -0.707096
0.002095 -0.000841 0.475718 0.000000 0.707117 -0.707096
0.002095 0.001159 0.477718 0.000000 0.707117 -0.707096
0.998595 0.001158 0.477718 0.000000 0.707117 -0.707096
0.000095 0.001159 0.475718 0.707117 -0.000000 -0.707096
0.000096 0.997658 0.475718 0.707117 -0.000000 -0.707096
0.002096 0.997658 0.477718 0.707117 -0.000000 -0.707096
0.002095 0.001159 0.477718 0.707117 -0.000000 -0.707096
0.998595 0.997657 0.477718 -0.000000 -0.707117 -0.707096
0.002096 0.997658 0.477718 -0.000000 -0.707117 -0.707096
0.002096 0.999658 0.475718 -0.000000 -0.707117 -0.707096
0.998595 0.999657 0.475718 -0.000000 -0.707117 -0.707096
1.000595 0.001158 0.475718 -0.707102 0.707112 0.000000
1.000595 0.001158 -0.002521 -0.707102 0.707112 0.000000
0.998595 -0.000842 -0.002521 -0.707102 0.707112 0.000000
0.998595 -0.000842 0.475718 -0.707102 0.707112 0.000000
0.998595 0.999657 0.475718 -0.707107 -0.707107 0.000000
0.998595 0.999658 -0.002521 -0.707107 -0.707107 0.000000
1.000595 0.997658 -0.002521 -0.707107 -0.707107 0.000000
1.000595 0.997657 0.475718 -0.707107 -0.707107 0.000000
0.002095 -0.000841 0.475718 0.707107 0.707107 -0.000000
0.002095 -0.000841 -0.002521 0.707107 0.707107 -0.000000
0.000095 0.001159 -0.002521 0.707107 0.707107 -0.000000
0.000095 0.001159 0.475718 0.707107 0.707107 -0.000000
0.000096 0.997658 0.475718 0.707107 -0.707107 0.000000
0.000096 0.997658 -0.002521 0.707107 -0.707107 0.000000
0.002096 0.999658 -0.002521 0.707107 -0.707107 0.000000
0.002096 0.999658 0.475718 0.707107 -0.707107 0.000000
0.998595 0.997657 0.477718 0.000000 0.000000 -1.000000
0.998595 0.001158 0.477718 0.000000 0.000000 -1.000000
0.002095 0.001159 0.477718 0.000000 0.000000 -1.000000
0.002096 0.997658 0.477718 0.000000 0.000000 -1.000000
4 0 1 2 3
4 4 5 6 7
4 8 9 10 11
4 12 13 14 15
3 16 17 18
3 19 20 21
3 22 23 24
3 25 26 27
4 28 29 30 31
4 32 33 34 35
4 36 37 38 39
4 40 41 42 43
4 44 45 46 47
4 48 49 50 51
4 52 53 54 55
4 56 57 58 59
4 60 61 62 63
